<svg width="969" height="606" viewBox="0 0 969 606" fill="none" xmlns="http://www.w3.org/2000/svg">
<path d="M886.104 565.891L112.749 565.626C112.749 565.626 7.55839 432.821 58.9687 296.104C92.4776 206.986 218.176 158.155 289.115 206.986C319.327 227.786 416.261 207.688 468.018 121.582C490.803 83.6745 526.442 59.5699 567.196 47.949C568.447 47.5911 569.702 47.2478 570.964 46.9151C572.233 46.5791 573.506 46.257 574.781 45.9422C609.087 37.5724 646.581 37.737 682.854 45.674C685.492 46.2534 688.126 46.8721 690.75 47.5302C727.998 56.8944 763.597 74.489 792.691 99.4841C795.272 101.698 797.803 103.973 800.277 106.305C850.139 153.308 877.857 223.708 855.701 312.775C824.777 437.099 949.815 441.617 886.104 565.891Z" fill="#94B2ED"/>
<path opacity="0.9" d="M792.691 99.4844V283.098H570.964V46.9151C572.233 46.5791 573.506 46.257 574.781 45.9422C574.781 45.9422 574.785 45.9422 574.788 45.9386C602.495 39.182 632.287 37.9909 661.831 41.9647C668.862 42.9092 675.879 44.1466 682.853 45.6741C685.491 46.2534 688.126 46.8721 690.749 47.5302C727.998 56.8948 763.598 74.4891 792.691 99.4844Z" fill="#2B478B"/>
<path d="M148.416 396.398H120.549V386.55H148.505C150.679 386.55 152.441 388.313 152.441 390.487V392.371C152.441 394.595 150.639 396.398 148.416 396.398Z" fill="#FCECDB"/>
<path d="M176.227 390.602V392.083C176.227 392.875 176.014 393.617 175.642 394.253C174.895 395.536 173.505 396.398 171.914 396.398H119.695C119.349 396.398 119.069 396.118 119.069 395.773V395.551C119.069 395.205 119.349 394.926 119.695 394.926H151.527C151.697 394.718 151.847 394.493 151.974 394.254C152.272 393.692 152.441 393.051 152.441 392.371V390.487C152.441 390.141 152.396 389.805 152.312 389.485C152.169 388.943 151.914 388.446 151.574 388.023H119.695C119.349 388.023 119.069 387.743 119.069 387.397V387.176C119.069 386.83 119.349 386.55 119.695 386.55H172.177C174.027 386.55 175.587 387.791 176.071 389.486C176.173 389.84 176.227 390.214 176.227 390.602Z" fill="#699DEE"/>
<path d="M176.071 389.485H152.312C152.169 388.943 151.914 388.446 151.574 388.023H119.695C119.349 388.023 119.069 387.742 119.069 387.397V387.176C119.069 386.83 119.349 386.55 119.695 386.55H172.177C174.027 386.55 175.587 387.79 176.071 389.485Z" fill="#548EE2"/>
<path d="M120.549 391.474L124.415 391.64L120.549 391.739V391.474Z" fill="#F4D2B8"/>
<path d="M120.549 393.019L129.748 393.184L120.549 393.284V393.019Z" fill="#F4D2B8"/>
<path d="M127.195 404.038H156.861V396.378H126.954C124.907 396.378 123.247 398.038 123.247 400.087C123.247 402.269 125.014 404.038 127.195 404.038Z" fill="#2B478B"/>
<path d="M155.158 404.038H188.92V396.377H155.072C152.99 396.377 151.303 398.066 151.303 400.149V400.18C151.303 402.31 153.029 404.038 155.158 404.038Z" fill="#FCECDB"/>
<path d="M149.048 404.038H190.092C190.408 404.038 190.665 403.781 190.665 403.465C190.665 403.148 190.408 402.892 190.092 402.892H149.048C148.732 402.892 148.476 403.148 148.476 403.465C148.476 403.781 148.732 404.038 149.048 404.038Z" fill="#2B478B"/>
<path d="M149.048 397.523H190.092C190.408 397.523 190.665 397.266 190.665 396.95C190.665 396.634 190.408 396.377 190.092 396.377H149.048C148.732 396.377 148.476 396.634 148.476 396.95C148.476 397.266 148.732 397.523 149.048 397.523Z" fill="#2B478B"/>
<path d="M188.92 400.207L184.359 400.336L188.92 400.414V400.207Z" fill="#F4D2B8"/>
<path d="M188.92 398.445L178.07 398.573L188.92 398.651V398.445Z" fill="#F4D2B8"/>
<path d="M178.181 398.548C178.181 398.548 178.647 398.877 178.8 399.418C178.828 399.512 178.845 399.614 178.848 399.72C178.874 400.439 178.848 402.066 178.848 402.066L180.221 401.253L181.59 402.066V399.861C181.59 399.444 181.473 399.039 181.255 398.773C181.149 398.644 181.021 398.548 180.876 398.548H178.181Z" fill="#F99746"/>
<path d="M178.181 398.548C178.181 398.548 178.647 398.877 178.8 399.418L181.551 399.45C181.551 399.45 181.444 398.675 180.876 398.547L178.181 398.548Z" fill="#ED7D2B"/>
<path d="M386.867 564.509L387.082 564.504C388.839 564.466 390.195 562.772 390.03 560.823L378.313 422.727L368.088 423.804L384.913 562.642C385.045 563.728 385.885 564.53 386.867 564.509Z" fill="#6683D3"/>
<path d="M274.042 564.509L273.827 564.504C272.071 564.466 270.714 562.772 270.88 560.823L282.597 422.727L292.821 423.804L275.997 562.642C275.865 563.728 275.025 564.53 274.042 564.509Z" fill="#6683D3"/>
<path d="M469.531 564.509L469.745 564.504C471.502 564.466 472.858 562.772 472.693 560.823L460.976 422.727L450.751 423.804L467.576 562.642C467.708 563.728 468.548 564.53 469.531 564.509Z" fill="#6683D3"/>
<path d="M277.532 402.64L256.733 281.43C254.063 265.019 265.587 250.013 280.549 250.416L320.661 251.497C334.498 251.87 346.529 262.799 350.375 278.49L380.805 402.639L277.532 402.64Z" fill="#6683D3"/>
<path d="M290.115 402.64L269.316 281.43C266.646 265.019 278.17 250.013 293.132 250.416L333.244 251.497C347.081 251.87 359.113 262.799 362.958 278.49L393.388 402.639L290.115 402.64Z" fill="#6683D3"/>
<path d="M283.827 424.746H441.529C444.992 424.746 447.825 421.912 447.825 418.447V408.939C447.825 405.474 444.992 402.64 441.529 402.64H277.531V418.447C277.531 421.912 280.365 424.746 283.827 424.746Z" fill="#6683D3"/>
<path d="M358.203 424.746H458.567C461.356 424.746 463.638 422.463 463.638 419.671V407.714C463.638 404.923 461.356 402.64 458.567 402.64H358.203C355.414 402.64 353.132 404.923 353.132 407.714V419.671C353.132 422.463 355.414 424.746 358.203 424.746Z" fill="#6683D3"/>
<path d="M727.458 476.493C727.458 476.493 713.563 460.274 726.601 449.971C726.601 449.971 736.124 444.202 743.889 444.671C743.889 444.671 732.886 463.132 736.446 464.968C740.005 466.805 747.224 443.512 747.224 443.512C747.224 443.512 768.895 441.41 775.866 444.763C775.866 444.763 757.34 459.933 761.242 460.836C765.144 461.739 785.155 446.85 785.155 446.85C785.155 446.85 805.324 450.285 804.249 462.596C803.173 474.908 796.224 478.71 793.169 478.382C790.114 478.055 772.246 471.23 771.857 473.734C771.468 476.239 782.223 484.423 789.755 484.806C789.755 484.806 775.535 500.498 766.084 495.969C756.633 491.441 755.827 484.261 749.936 481.569C744.044 478.877 739.015 478.884 741.448 481.63C743.88 484.375 754.542 487.044 757.911 493.008C761.28 498.971 764.303 502.992 754.525 501.52C744.747 500.048 728.853 492.889 728.155 484.691C727.458 476.493 727.458 476.493 727.458 476.493Z" fill="#6683D3"/>
<path d="M794.338 462.929C794.338 462.929 739.556 460.816 727.458 476.493C727.458 476.493 724.782 484.511 716.549 491.813L715.266 495.312C715.266 495.312 724.759 485.297 728.155 484.691C728.155 484.691 722.843 465.269 794.338 462.929Z" fill="#6683D3"/>
<path d="M716.549 491.812C716.549 491.812 704.79 500.514 703.974 516.061L706.108 516.252C706.108 516.252 709.863 500.176 716.651 493.89C723.439 487.603 716.549 491.812 716.549 491.812Z" fill="#6683D3"/>
<path d="M678.879 456.095C678.879 456.095 700.981 443.711 690.667 426.903C690.667 426.903 682.415 416.582 673.575 413.928C673.575 413.928 678.29 438.993 673.575 439.582C668.86 440.172 670.333 411.274 670.333 411.274C670.333 411.274 647.052 400.069 637.917 400.953C637.917 400.953 652.357 425.428 647.642 424.838C642.927 424.249 626.718 399.479 626.718 399.479C626.718 399.479 602.848 395.056 599.017 409.21C595.187 423.364 601.375 430.441 604.911 431.325C608.448 432.21 631.139 431.915 630.55 434.864C629.96 437.813 614.636 442.531 606.09 439.877C606.09 439.877 615.52 463.172 627.898 461.992C640.275 460.813 644.106 453.146 651.768 452.556C659.43 451.966 665.029 454.03 661.198 456.095C657.367 458.159 644.4 456.771 638.212 462.036C632.023 467.3 627.014 470.544 638.507 472.902C650 475.261 670.628 473.787 674.754 464.941C678.879 456.095 678.879 456.095 678.879 456.095Z" fill="#6683D3"/>
<path d="M609.921 413.633C609.921 413.633 671.807 433.685 678.879 456.095C678.879 456.095 678.584 466.121 684.773 477.621V482.044C684.773 482.044 678.29 467.005 674.754 464.941C674.754 464.941 688.604 445.48 609.921 413.633Z" fill="#6683D3"/>
<path d="M684.773 477.621C684.773 477.621 694.317 492.122 688.876 509.775L686.421 509.115C686.421 509.115 688.804 489.672 683.811 479.893C678.817 470.115 684.773 477.621 684.773 477.621Z" fill="#6683D3"/>
<path d="M714.042 439.015C714.042 439.015 684.907 422.69 698.503 400.534C698.503 400.534 709.38 386.929 721.034 383.431C721.034 383.431 714.819 416.471 721.034 417.248C727.249 418.025 725.307 379.933 725.307 379.933C725.307 379.933 755.995 365.162 768.037 366.328C768.037 366.328 749.003 398.591 755.218 397.813C761.433 397.036 782.798 364.385 782.798 364.385C782.798 364.385 814.264 358.554 819.314 377.212C824.364 395.869 816.206 405.198 811.545 406.364C806.883 407.531 776.972 407.142 777.749 411.029C778.526 414.916 798.725 421.135 809.991 417.637C809.991 417.637 797.56 448.344 781.245 446.789C764.93 445.235 759.88 435.129 749.78 434.351C739.68 433.574 732.299 436.295 737.349 439.016C742.399 441.736 759.491 439.907 767.649 446.847C775.806 453.786 782.411 458.062 767.261 461.172C752.111 464.281 724.919 462.338 719.48 450.677C714.041 439.015 714.042 439.015 714.042 439.015Z" fill="#6683D3"/>
<path d="M804.941 383.042C804.941 383.042 723.364 409.474 714.041 439.015C714.041 439.015 714.43 452.231 706.272 467.39V473.221C706.272 473.221 714.818 453.397 719.48 450.676C719.48 450.676 701.222 425.022 804.941 383.042Z" fill="#6683D3"/>
<path d="M706.272 467.39C706.272 467.39 693.692 486.506 700.864 509.776L704.1 508.906C704.1 508.906 700.959 483.276 707.541 470.386C714.123 457.495 706.272 467.39 706.272 467.39Z" fill="#6683D3"/>
<path d="M713.06 560.236C744.579 560.236 770.13 534.669 770.13 503.13H655.99C655.99 534.669 681.541 560.236 713.06 560.236Z" fill="#6683D3"/>
<path d="M770.918 563.141H655.202C655.202 559.251 658.354 556.096 662.243 556.096H763.877C767.765 556.096 770.918 559.251 770.918 563.141Z" fill="#6683D3"/>
<path d="M771.427 503.13H654.113V504.882H771.427V503.13Z" fill="#6683D3"/>
<path d="M259.047 406.563V410.535C259.047 411.926 258.597 413.062 258.048 413.062H113.17C112.621 413.062 112.171 411.926 112.171 410.535V406.563C112.171 405.174 112.621 404.036 113.17 404.036H258.048C258.597 404.036 259.047 405.174 259.047 406.563Z" fill="#728FD6"/>
<path d="M259.047 406.563V410.535C259.047 411.926 258.634 413.062 258.131 413.062H143.112C142.608 413.062 142.195 411.926 142.195 410.535V406.563C142.195 405.174 142.608 404.036 143.112 404.036H258.13C258.634 404.036 259.047 405.174 259.047 406.563Z" fill="#7A98E2"/>
<path d="M222.379 413.063H119.524V563.072H222.379V413.063Z" fill="#6683D3"/>
<path d="M251.202 413.063H148.348V563.072H251.202V413.063Z" fill="#7A98E2"/>
<path d="M245.677 554.79H153.876V417.301H245.677V554.79ZM154.867 553.798H244.686V418.292H154.867V553.798Z" fill="#6683D3"/>
<path d="M245.181 462.783H154.372V463.775H245.181V462.783Z" fill="#6683D3"/>
<path d="M245.181 509.152H154.372V510.143H245.181V509.152Z" fill="#6683D3"/>
<path d="M209.082 426.167H192.231C191.413 426.167 190.744 425.498 190.744 424.68C190.744 423.862 191.413 423.192 192.231 423.192H209.082C209.899 423.192 210.568 423.862 210.568 424.68C210.568 425.498 209.899 426.167 209.082 426.167Z" fill="#6683D3"/>
<path d="M209.082 471.511H192.231C191.413 471.511 190.744 470.842 190.744 470.024C190.744 469.205 191.413 468.536 192.231 468.536H209.082C209.899 468.536 210.568 469.205 210.568 470.024C210.568 470.842 209.899 471.511 209.082 471.511Z" fill="#6683D3"/>
<path d="M209.082 518.779H192.231C191.413 518.779 190.744 518.11 190.744 517.291C190.744 516.473 191.413 515.803 192.231 515.803H209.082C209.899 515.803 210.568 516.473 210.568 517.291C210.568 518.11 209.899 518.779 209.082 518.779Z" fill="#6683D3"/>
<path d="M151.272 372.395L154.292 372.881L160.01 337.264L156.99 336.779L151.272 372.395Z" fill="#B5453C"/>
<path d="M159.484 330.74L159.988 337.253L156.968 336.768L159.484 330.74Z" fill="#EFCBAB"/>
<path d="M130.839 375.793L133.846 375.234L127.263 339.765L124.255 340.324L130.839 375.793Z" fill="#B5453C"/>
<path d="M124.592 333.81L127.255 339.775L124.248 340.334L124.592 333.81Z" fill="#EFCBAB"/>
<path d="M134.646 365.386L137.654 364.827L131.067 329.359L128.06 329.918L134.646 365.386Z" fill="#B5453C"/>
<path d="M128.405 323.407L131.068 329.372L128.061 329.931L128.405 323.407Z" fill="#EFCBAB"/>
<path d="M124.571 386.549H148.664V351.805H124.571V386.549Z" fill="#E96B4E"/>
<path d="M136.618 386.549H160.711V351.805H136.618V386.549Z" fill="#F99781"/>
<path d="M792.691 99.4844V276.767H574.782V45.9425C573.506 46.2573 572.233 46.5794 570.964 46.9154C569.702 47.2481 568.447 47.5914 567.196 47.9493V290.689H800.277V106.305C797.803 103.973 795.272 101.698 792.691 99.4844Z" fill="#6683D3"/>
<path d="M820.907 290.687H544.8C544.8 283.092 550.952 276.936 558.542 276.936H807.165C814.754 276.936 820.907 283.092 820.907 290.687Z" fill="#6683D3"/>
<path d="M690.75 47.5306V283.098H682.854V45.6741C685.492 46.2534 688.126 46.8724 690.75 47.5306Z" fill="#6683D3"/>
<path opacity="0.7" d="M551.785 154.374C551.606 154.56 403.964 325.639 403.964 325.639H575.108L600.097 197.609L551.785 154.374Z" fill="#FFEDDC"/>
<path d="M626.787 318.554H623.815V267.343L654.222 189.706L599.931 147.609L601.75 145.258L657.801 188.719L626.787 267.905V318.554Z" fill="#163560"/>
<path d="M593.794 152.973C592.428 152.004 592.106 150.11 593.075 148.744L597.597 142.362C598.565 140.995 600.458 140.672 601.824 141.642C603.19 142.611 603.512 144.504 602.544 145.871L598.021 152.253C597.053 153.62 595.16 153.942 593.794 152.973Z" fill="#163560"/>
<path d="M651.399 188.813C651.399 186.639 653.161 184.876 655.335 184.876C657.508 184.876 659.27 186.638 659.27 188.813C659.27 190.988 657.508 192.751 655.335 192.751C653.161 192.751 651.399 190.988 651.399 188.813Z" fill="#163560"/>
<path d="M639.731 325.597H609.823V322.576C609.823 319.539 612.283 317.078 615.317 317.078H634.016C637.173 317.078 639.731 319.639 639.731 322.797V325.597Z" fill="#163560"/>
<path d="M628.426 270.97H622.146V318.554H628.426V270.97Z" fill="#163560"/>
<path d="M600.526 197.14C600.384 197.299 600.242 197.457 600.096 197.606L600.065 197.639C599.927 197.794 599.788 197.942 599.645 198.086C595.584 201.612 582.125 195.293 569.103 183.641C556.085 171.992 548.307 159.308 551.357 154.877C551.485 154.719 551.615 154.564 551.754 154.41L551.785 154.376C551.916 154.214 552.057 154.055 552.199 153.897C564.135 140.542 584.628 139.401 597.971 151.34C611.317 163.283 612.461 183.785 600.526 197.14Z" fill="#F99781"/>
<path d="M600.097 197.609L600.067 197.639C600.023 197.698 599.978 197.75 599.934 197.802C599.845 197.906 599.748 197.995 599.644 198.085C595.587 201.609 582.123 195.297 569.105 183.639C556.087 171.996 548.307 159.311 551.354 154.88C551.436 154.769 551.517 154.657 551.606 154.56C551.651 154.508 551.696 154.456 551.755 154.412L551.785 154.374C554.549 151.757 562.054 154.092 570.821 159.772C574.551 162.189 578.512 165.214 582.435 168.724C585.511 171.482 588.298 174.293 590.72 177.036C598.619 186.01 602.601 194.293 600.097 197.609Z" fill="#F9DDBF"/>
<path d="M590.72 177.036C588.424 178.932 585.475 180.062 582.257 180.062C574.879 180.062 568.897 174.077 568.897 166.694C568.897 164.158 569.603 161.787 570.822 159.772C574.551 162.188 578.512 165.214 582.435 168.724C585.511 171.482 588.298 174.293 590.72 177.036Z" fill="#FFEDDC"/>
<path d="M591.679 310.532H466.832L475.193 224.647H600.039L591.679 310.532Z" fill="#2A4E96"/>
<path d="M596.194 310.532H471.348L479.708 224.647H604.554L596.194 310.532Z" fill="#163560"/>
<path d="M540.89 323.568H518.735L525.981 274.073H548.136L540.89 323.568Z" fill="#2A4E96"/>
<path d="M551.201 322.081H505.719V325.648H551.201V322.081Z" fill="#2A4E96"/>
<path d="M706.085 102.353C706.085 101.81 706.525 101.369 707.068 101.369C707.611 101.369 708.051 101.81 708.051 102.353C708.051 102.896 707.611 103.336 707.068 103.336C706.525 103.336 706.085 102.896 706.085 102.353Z" fill="white"/>
<path d="M650.416 104.32C650.416 103.777 650.856 103.336 651.399 103.336C651.942 103.336 652.382 103.777 652.382 104.32C652.382 104.863 651.942 105.304 651.399 105.304C650.856 105.304 650.416 104.863 650.416 104.32Z" fill="white"/>
<path d="M669.209 129.236C669.209 128.693 669.649 128.252 670.192 128.252C670.735 128.252 671.175 128.693 671.175 129.236C671.175 129.78 670.735 130.22 670.192 130.22C669.649 130.22 669.209 129.78 669.209 129.236Z" fill="white"/>
<path d="M722.26 85.184C722.26 84.6407 722.7 84.2004 723.243 84.2004C723.786 84.2004 724.226 84.6407 724.226 85.184C724.226 85.7273 723.786 86.1675 723.243 86.1675C722.7 86.1675 722.26 85.7273 722.26 85.184Z" fill="white"/>
<path d="M754.79 117.733C754.79 117.19 755.229 116.75 755.772 116.75C756.315 116.75 756.755 117.19 756.755 117.733C756.755 118.277 756.315 118.717 755.772 118.717C755.229 118.717 754.79 118.276 754.79 117.733Z" fill="white"/>
<path d="M729.877 180.062C729.877 179.519 730.317 179.079 730.86 179.079C731.403 179.079 731.843 179.519 731.843 180.062C731.843 180.606 731.403 181.046 730.86 181.046C730.317 181.046 729.877 180.605 729.877 180.062Z" fill="white"/>
<path d="M711.647 207.638C711.647 207.095 712.087 206.654 712.63 206.654C713.173 206.654 713.613 207.095 713.613 207.638C713.613 208.181 713.173 208.622 712.63 208.622C712.087 208.622 711.647 208.181 711.647 207.638Z" fill="white"/>
<path d="M769.643 172.055C769.643 171.512 770.083 171.072 770.626 171.072C771.169 171.072 771.609 171.512 771.609 172.055C771.609 172.599 771.169 173.039 770.626 173.039C770.083 173.039 769.643 172.599 769.643 172.055Z" fill="white"/>
<path d="M425.116 525.285C425.116 525.285 421.044 514.197 412.965 502.87C410.397 499.27 419.757 497.147 421.902 503.586C424.047 510.024 429.409 528.087 429.409 528.087L425.116 525.285Z" fill="#163560"/>
<path d="M474.64 549.966C474.64 549.966 462.239 528.7 449.594 534.623C443.99 537.248 444.154 544.809 452.167 550.443C456.554 553.527 474.151 563.091 474.151 563.091L474.64 549.966Z" fill="#163560"/>
<path d="M446.879 495.131C446.879 495.131 441.23 510.267 442.429 515.881C443.628 521.495 440.784 531.358 443.081 536.225C445.378 541.092 440.673 545.253 436.736 547.045C435.243 547.724 430.046 534.66 429.051 530.681C428.055 526.701 424.81 518.466 421.483 512.09C418.156 505.714 420.944 500.573 425.753 498.229C430.562 495.884 437.263 483.045 437.263 483.045L446.879 495.131Z" fill="#FFB27D"/>
<path d="M420.414 188.916C414.641 181.859 403.922 179.958 403.922 179.958C382.803 162.207 364.512 187.458 360.893 196.722C357.271 205.982 355.082 221.716 339.821 229.194C312.713 242.478 342.152 265.173 342.152 265.173C354.444 238.022 411.773 286.449 409.143 288.604C462.727 312.314 433.541 204.967 420.414 188.916Z" fill="#163560"/>
<path d="M372.082 270.298C372.082 270.298 382.051 288.233 396.027 303.116C403.409 310.978 411.913 317.988 420.652 321.044C424.917 322.536 429.237 323.088 433.513 322.337C436.24 321.862 435.055 305.746 431.265 293.495C426.271 277.36 410.706 237.266 410.706 237.266L401.801 241.066C401.801 241.066 414.154 291.562 412.682 291.776L399.619 258.699L372.082 270.298Z" fill="#E5925A"/>
<path d="M353.052 352.115C353.052 352.115 448.749 357.764 461.729 366.593C483.333 381.287 452.315 501.972 452.315 501.972C452.315 501.972 426.643 502.792 424.602 495.994C424.602 495.994 429.22 432.932 425.179 422.039C421.138 411.146 423.63 396.048 423.63 396.048C423.63 396.048 373.42 403.714 357.475 399.941C341.53 396.168 353.052 352.115 353.052 352.115Z" fill="#E96B4E"/>
<path d="M463.737 518.617C463.737 518.617 469.181 533.829 473.717 537.344C478.253 540.859 483.793 550.425 488.687 552.66C493.58 554.896 494.293 556.071 492.441 559.981C491.738 561.464 476.741 563.961 473.414 561.564C470.088 559.167 469.801 554.378 455.269 547.97C448.691 545.07 447.431 539.518 449.594 534.623C451.756 529.727 448.597 515.591 448.597 515.591L463.737 518.617Z" fill="#FFB27D"/>
<path d="M296.767 348.579C296.767 348.579 428.556 372.916 437.63 383.404C446.704 393.891 468.648 524.606 468.648 524.606C468.648 524.606 458.16 530.493 448.597 525.044C448.597 525.044 425.871 477.665 417.612 460.664C405.101 434.91 410.376 420.699 408.385 420.245C406.394 419.791 325.049 411.964 301.698 396.501C287.936 387.388 296.767 348.579 296.767 348.579Z" fill="#F99781"/>
<path d="M399.714 306.866C395.688 311.032 397.594 312.919 397.594 314.687C397.594 321.436 396.636 323.027 392.064 325.438C386.534 328.349 380.093 329.869 378.62 334.301C378.62 334.305 378.62 334.305 378.617 334.308C378.313 335.227 378.22 336.275 378.395 337.484C381.72 360.387 360.307 372.412 348.636 377.752C341.408 381.057 327.986 384.773 315.846 386.093C302.338 387.567 290.416 386.072 290.395 377.752C290.18 305.811 317.458 265.439 337.444 250.384C344.393 245.151 365.312 239.367 378.395 245.258C384.59 248.048 393.995 251.704 399.618 258.7C405.688 266.247 412.683 291.776 412.683 291.776C410.395 305.221 399.714 306.866 399.714 306.866Z" fill="#F9DDBF"/>
<path d="M339.821 275.915C339.933 276.428 337.938 294.505 349.939 312.538C354.314 319.111 335.014 316.423 348.008 330.495C349.484 326.061 386.535 328.349 392.064 325.436L367.433 303.937L339.821 275.915Z" fill="#EAC3A2"/>
<path d="M410.006 241.495C410.006 241.495 416.416 233.857 417.538 231.544C418.661 229.23 416.56 219.264 413.947 219.329C412.299 219.371 410.27 225.407 408.469 227.601C406.667 229.796 398.827 232.917 402.143 242.14C402.517 243.179 410.006 241.495 410.006 241.495Z" fill="#E5925A"/>
<path d="M393.713 256.769C395.521 259.484 393.313 267.09 383.066 264.722C376.338 263.168 363.228 252.248 365.594 246.676C366.719 244.027 373.169 237.809 377.223 221.643L378.397 222.201L398.127 231.615C398.127 231.615 395.988 238.038 394.405 244.198C393.073 249.37 392.965 255.646 393.713 256.769Z" fill="#FFB27D"/>
<path d="M398.127 231.615C398.127 231.615 395.988 238.038 394.405 244.198C382.861 240.906 379.417 228.726 378.397 222.201L398.127 231.615Z" fill="#F4A269"/>
<path d="M409.361 235.151C409.361 235.151 381.702 241.572 377.972 224.275C374.241 206.979 368.158 196.159 385.66 191.328C403.161 186.497 408.027 192.354 410.675 197.824C413.324 203.294 416.459 233.035 409.361 235.151Z" fill="#FFB27D"/>
<path d="M398.21 188.189C398.21 188.189 398.035 208.094 383.386 217.756C374.815 223.409 374.412 229.194 374.412 229.194C374.412 229.194 369.336 212.162 368.529 199.35C368.529 199.35 390.405 179.76 398.21 188.189Z" fill="#163560"/>
<path d="M396.469 191.705C396.469 191.705 404.644 194.426 408.281 197.437C413.666 201.897 415.07 216.4 414.428 220.011C414.428 220.011 415.895 194.804 407.786 188.382C399.188 181.573 396.469 191.705 396.469 191.705Z" fill="#163560"/>
<path d="M339.818 275.909C342.633 282.625 345.889 288.94 349.345 294.662C362.544 316.497 378.684 329.69 384.513 323.541C386.125 321.839 390.194 319.369 385.94 310.226C382.654 303.164 378.585 294.33 374.592 285.637C366.36 267.712 358.463 250.385 358.463 250.385C355.95 250.385 329.507 251.305 339.818 275.909Z" fill="#FFB27D"/>
<path d="M367.431 303.935C368.336 303.393 418.1 315.487 433.512 319.251C436.341 319.942 438.012 320.352 438.012 320.352V326.163C438.012 326.163 386.52 328.581 378.478 324.885C370.436 321.19 362.759 312.589 362.759 312.589L367.431 303.935Z" fill="#FFB27D"/>
<path d="M339.818 275.909C342.633 282.625 345.889 288.94 349.345 294.662C360.097 293.266 370.025 288.24 374.592 285.637C366.36 267.712 358.463 250.385 358.463 250.385C355.95 250.385 329.507 251.305 339.818 275.909Z" fill="#F9DDBF"/>
<path d="M433.512 319.251C433.512 319.251 449.904 314.539 454.466 315.841C457.685 316.76 461.795 321.523 463.938 324.249C464.563 325.045 463.987 326.209 462.976 326.199C460.233 326.171 455.797 325.991 453.475 324.77C451.284 323.619 448.022 326.155 444.389 326.171C441.599 326.183 438.012 326.163 438.012 326.163L433.512 319.251Z" fill="#FFB27D"/>
<path d="M465.765 555.037C465.765 555.037 473.546 544.541 483.376 542.573C483.376 542.573 499.471 549.965 500.901 563.091H474.151L465.765 555.037Z" fill="#163560"/>
<path d="M425.116 525.285C426.013 525.226 439.694 522.701 442.274 527.357C445.311 532.839 445.219 545.927 437.9 549.539C436.218 550.369 434.186 549.545 433.529 547.788L425.116 525.285Z" fill="#163560"/>
<path d="M348.636 377.753C341.408 381.057 327.985 384.774 315.846 386.094C318.823 385.568 364.709 367.74 353.052 352.115C343.404 339.183 339.563 331.665 351.538 329.751C355.874 329.057 373.536 333.456 378.616 334.308C378.312 335.227 378.219 336.275 378.394 337.484C381.719 360.387 360.307 372.412 348.636 377.753Z" fill="#EAC3A2"/>
<path d="M460.865 325.648C460.865 325.648 456.575 320.11 449.605 320.907C442.635 321.703 438.012 326.163 438.012 326.163L460.865 325.648Z" fill="#6683D3"/>
<path d="M683.483 339.183H343.405C340.308 339.183 337.797 336.671 337.797 333.573V331.206C337.797 328.107 340.308 325.595 343.405 325.595H683.483C686.58 325.595 689.09 328.107 689.09 331.206V333.573C689.09 336.671 686.58 339.183 683.483 339.183Z" fill="#163560"/>
<path d="M341.282 563.072C339.359 562.834 338.452 561.033 338.695 559.152L367.99 332.389L376.065 332.86L344.023 560.607C343.771 562.066 342.784 563.257 341.282 563.072Z" fill="#163560"/>
<path d="M681.543 563.072C683.467 562.834 684.373 561.033 684.13 559.152L654.835 332.389L646.76 332.86L678.802 560.607C679.055 562.066 680.041 563.257 681.543 563.072Z" fill="#163560"/>
<path d="M455.688 316.343L466.048 319.378C466.048 319.378 465.453 320.451 463.487 320.272C461.52 320.094 457.171 319.438 457.171 319.438L455.688 316.343Z" fill="#FFB27D"/>
<path d="M544.96 556.461L639.372 552.919C639.985 551.93 640.511 550.961 640.95 550.013C640.95 550.013 640.95 550.008 640.954 550.008C641.288 549.297 641.573 548.596 641.815 547.906C645.32 537.958 639.617 530.622 631.702 527.891C622.506 524.721 615.294 531.491 615.294 531.491C615.294 531.491 598.041 516.411 566.944 518.619C548.834 519.905 539.943 532.693 535.674 543.15C533.022 549.651 537.948 556.724 544.96 556.461Z" fill="#2B478B"/>
<path d="M628.549 527.161C628.549 527.161 633.062 521.249 639.224 521.604C639.224 521.604 641.462 526.647 636.587 533.274C631.712 539.902 628.549 527.161 628.549 527.161Z" fill="#2B478B"/>
<path d="M636.858 538.533C636.858 538.533 643.09 534.475 648.776 536.874C648.776 536.874 649.198 542.375 642.386 546.986C635.574 551.598 636.858 538.533 636.858 538.533Z" fill="#2B478B"/>
<path d="M547.833 547.424C547.833 547.424 557.036 551.078 567.686 548.163C578.941 545.083 607.699 542.1 612.095 553.942L547.286 556.548L547.833 547.424Z" fill="#2E3552"/>
<path d="M632.951 549.525L644.835 550.249C644.835 550.249 649.458 548.614 650.785 548.856C652.111 549.097 653.209 552.398 653.209 552.398L634.548 553.098L632.951 549.525Z" fill="#2B478B"/>
<path d="M544.903 545.697C544.903 545.697 553.042 551.935 564.37 549.533C575.698 547.13 599.181 546.817 602.57 549.372C602.57 549.372 605.778 550.982 603.673 553.405C601.568 555.827 584.178 554.988 576.888 555.438C571.559 555.767 544.406 558.128 540.365 555.497C536.323 552.865 544.903 545.697 544.903 545.697Z" fill="#2B478B"/>
<path d="M632.1 542.425C632.1 542.425 629.473 539.51 629.037 540.186C628.601 540.861 628.496 542.733 629.148 543.147C629.8 543.563 632.743 543.987 632.1 542.425Z" fill="#2E3552"/>
<path d="M628.931 548.385C629.361 548.835 640.95 550.013 640.95 550.013C640.95 550.013 640.95 550.008 640.954 550.008C641.288 549.297 641.573 548.596 641.815 547.906C639.505 550.124 628.501 547.931 628.931 548.385Z" fill="#2E3552"/>
<path d="M635.6 530.382C635.6 530.382 638.418 529.398 637.923 523.997C637.923 523.997 633.061 524.911 631.583 526.578C630.105 528.245 631.623 527.757 633.115 528.502C634.606 529.248 634.978 531.358 635.6 530.382Z" fill="#2E3552"/>
<path d="M642.727 543.3C642.727 543.3 645.709 543.408 647.211 538.196C647.211 538.196 642.349 537.28 640.366 538.294C638.383 539.309 639.976 539.407 641.094 540.644C642.213 541.881 641.793 543.982 642.727 543.3Z" fill="#2E3552"/>
<path d="M627.544 547.822C627.544 547.822 623.131 547.255 621.601 545.481C621.601 545.481 623.374 545.928 624.17 545.678C624.17 545.678 621.214 544.939 620.517 543.925C619.821 542.912 619.35 542.072 618.431 542.938C617.512 543.804 616.219 546.416 617.349 547.252C618.478 548.089 627.544 547.822 627.544 547.822Z" fill="white"/>
<path d="M524.324 563.032C524.324 563.032 525.163 550.442 541.587 549.029C558.012 547.617 582.581 552.696 595.499 552.184C608.416 551.672 647.092 550.59 653.21 552.398C659.328 554.206 666.167 556.11 665.407 563.141L524.324 563.032Z" fill="#E96B4E"/>
<path d="M922.75 566.582H77.2852C76.6223 566.582 76.08 566.039 76.08 565.376V564.245C76.08 563.582 76.6223 563.039 77.2852 563.039H922.75C923.413 563.039 923.955 563.582 923.955 564.245V565.376C923.955 566.039 923.413 566.582 922.75 566.582Z" fill="#2E3552"/>
<path opacity="0.5" d="M721.02 276.936C721.02 276.936 720.226 260.629 734.702 250.408C749.179 240.188 756.685 244.453 765.264 233.2C773.843 221.947 785.106 218.227 792.691 224.647V276.767L721.02 276.936Z" fill="#2E3552"/>
<path opacity="0.5" d="M651.4 68.5087C657.638 80.3124 653.206 88.893 636.584 95.8678C619.961 102.843 619.425 101.77 609.824 115.766C600.222 129.762 574.781 128.252 574.781 128.252V45.9425C574.781 45.9425 574.785 45.9425 574.788 45.9388C602.495 39.1822 632.287 37.9911 661.831 41.965C668.012 68.1833 645.331 57.0235 651.4 68.5087Z" fill="#2E3552"/>
<path d="M239.269 380.151H236.767C236.767 380.151 236.767 380.15 236.767 380.149H232.626C232.626 380.15 232.626 380.151 232.626 380.151H208.709C208.629 380.784 208.583 381.426 208.583 382.078V385.03C206.546 384.602 203.734 384.253 202.289 385.146C199.864 386.645 200.604 391.035 202.886 393.747C205.169 396.458 212.44 398.249 212.44 398.249L212.438 398.246C213.897 399.902 215.707 401.237 217.743 402.151H217.712V404.035H230.288V402.151H230.234C235.616 399.74 239.394 394.334 239.394 388.079V382.078C239.394 381.426 239.349 380.783 239.269 380.151ZM203.903 390.696C202.926 388.169 203.586 387.236 204.678 387.038C205.9 386.816 207.567 387.662 208.622 389.108C208.741 390.898 209.167 392.606 209.852 394.181C208.141 393.764 204.674 392.69 203.903 390.696Z" fill="#2C3A64"/>
</svg>
