<svg width="80" height="76" viewBox="0 0 80 76" fill="none" xmlns="http://www.w3.org/2000/svg">
<path d="M40 0C18 0 0 17.0906 0 38.1399C0 57.1717 14.64 72.9682 33.76 75.8229V49.1784H23.6V38.1399H33.76V29.7277C33.76 20.1738 39.72 14.921 48.8799 14.921C53.2399 14.921 57.7999 15.6442 57.7999 15.6442V25.0459H52.7599C47.7999 25.0459 46.2399 27.9768 46.2399 30.9839V38.1399H57.3599L55.5599 49.1784H46.2399V75.8229C55.6655 74.4062 64.2487 69.8298 70.4395 62.9193C76.6303 56.0093 80.0215 47.2204 79.9999 38.1399C79.9999 17.0906 61.9999 0 40 0Z" fill="#F99781"/>
</svg>
