<svg width="80" height="76" viewBox="0 0 80 76" fill="none" xmlns="http://www.w3.org/2000/svg">
<path d="M40 75.8229C62.0914 75.8229 80 58.8494 80 37.9115C80 16.9735 62.0914 0 40 0C17.9086 0 0 16.9735 0 37.9115C0 58.8494 17.9086 75.8229 40 75.8229Z" fill="#F99781"/>
<path d="M40 19.2631C46.4082 19.2631 47.1674 19.2862 49.698 19.3956C52.038 19.4968 53.3088 19.8674 54.1546 20.1788C55.2748 20.5915 56.0742 21.0844 56.914 21.8803C57.754 22.6765 58.274 23.4341 58.7094 24.4958C59.038 25.2975 59.429 26.5019 59.5358 28.7195C59.6512 31.1182 59.6756 31.8376 59.6756 37.9112C59.6756 43.985 59.6512 44.7043 59.5358 47.103C59.429 49.3208 59.038 50.5251 58.7094 51.3267C58.274 52.3884 57.754 53.1463 56.9142 53.9422C56.0742 54.7382 55.2748 55.231 54.1546 55.6437C53.3088 55.9553 52.038 56.3257 49.698 56.4269C47.1678 56.5363 46.4088 56.5596 40 56.5596C33.5912 56.5596 32.8324 56.5363 30.302 56.4269C27.962 56.3257 26.6912 55.9553 25.8454 55.6437C24.7252 55.231 23.9258 54.7382 23.086 53.9422C22.2462 53.1463 21.726 52.3884 21.2906 51.3267C20.962 50.5251 20.571 49.3208 20.4642 47.103C20.3488 44.7043 20.3244 43.985 20.3244 37.9112C20.3244 31.8376 20.3488 31.1182 20.4642 28.7195C20.571 26.5019 20.962 25.2975 21.2906 24.4958C21.726 23.4341 22.246 22.6765 23.086 21.8805C23.9258 21.0844 24.7252 20.5915 25.8454 20.1788C26.6912 19.8674 27.962 19.4968 30.302 19.3956C32.8326 19.2862 33.5918 19.2631 40 19.2631ZM40 15.1645C33.482 15.1645 32.6646 15.1906 30.1048 15.3013C27.5504 15.4119 25.8056 15.7963 24.279 16.3587C22.7008 16.9399 21.3624 17.7176 20.0282 18.9824C18.6938 20.2469 17.8732 21.5154 17.26 23.0112C16.6666 24.4581 16.261 26.1116 16.1444 28.5328C16.0276 30.959 16 31.7337 16 37.9112C16 44.089 16.0276 44.8636 16.1444 47.2897C16.261 49.7109 16.6666 51.3644 17.26 52.8113C17.8732 54.3071 18.6938 55.5756 20.0282 56.8404C21.3624 58.1049 22.7008 58.8827 24.279 59.4638C25.8056 60.0263 27.5504 60.4107 30.1048 60.5212C32.6646 60.6319 33.482 60.6581 40 60.6581C46.518 60.6581 47.3354 60.6319 49.8952 60.5212C52.4496 60.4107 54.1944 60.0263 55.721 59.4638C57.2992 58.8827 58.6376 58.1049 59.9718 56.8404C61.306 55.5756 62.1268 54.3071 62.74 52.8113C63.3334 51.3644 63.739 49.7109 63.8556 47.2897C63.9724 44.8636 64 44.089 64 37.9112C64 31.7337 63.9724 30.959 63.8556 28.5328C63.739 26.1116 63.3334 24.4581 62.74 23.0112C62.1268 21.5154 61.306 20.2469 59.9718 18.9824C58.6376 17.7176 57.2992 16.9399 55.721 16.3587C54.1944 15.7963 52.4496 15.4119 49.8952 15.3013C47.3354 15.1906 46.518 15.1645 40 15.1645Z" fill="white"/>
<path d="M40.0118 26.2408C33.2052 26.2408 27.6876 31.4704 27.6876 37.9216C27.6876 44.3728 33.2052 49.6023 40.0118 49.6023C46.8184 49.6023 52.3362 44.3728 52.3362 37.9216C52.3362 31.4704 46.8184 26.2408 40.0118 26.2408ZM40.0118 45.5038C35.5936 45.5038 32.0118 42.1091 32.0118 37.9216C32.0118 33.734 35.5936 30.3393 40.0118 30.3393C44.4302 30.3393 48.0118 33.734 48.0118 37.9216C48.0118 42.1091 44.4302 45.5038 40.0118 45.5038Z" fill="white"/>
<path d="M55.7013 25.7727C55.7013 27.28 54.4119 28.5023 52.8213 28.5023C51.2307 28.5023 49.9413 27.28 49.9413 25.7727C49.9413 24.2651 51.2307 23.0428 52.8213 23.0428C54.4119 23.0428 55.7013 24.2651 55.7013 25.7727Z" fill="white"/>
</svg>
