<svg width="37" height="46" viewBox="0 0 37 46" fill="none" xmlns="http://www.w3.org/2000/svg">
<path d="M18.5 0C8.28646 0 0 8.23952 0 18.3952C0.024087 20.5749 0.42155 22.7305 1.19238 24.7665L1.14421 24.7545C3.10742 30.8503 12.8031 40.3353 18.488 46H18.5V45.988C23.1491 41.3653 30.46 33.9521 34.0612 28.3473C34.8682 27.0778 35.5065 25.8683 35.8678 24.7545L35.8076 24.7665C36.5784 22.7305 36.988 20.5749 37 18.3952C37 8.23952 28.7256 0 18.5 0ZM18.5 11.3174C22.4264 11.3174 25.6182 14.491 25.6182 18.3952C25.6182 22.2994 22.4264 25.4731 18.5 25.4731C14.5736 25.4611 11.3939 22.2994 11.3939 18.3952C11.3818 14.491 14.5736 11.3293 18.5 11.3174Z" fill="#8699BF"/>
</svg>
