<svg width="51" height="34" viewBox="0 0 51 34" fill="none" xmlns="http://www.w3.org/2000/svg">
<path fill-rule="evenodd" clip-rule="evenodd" d="M33.4732 4.18417C30.007 4.18417 27.197 6.99415 27.197 10.4604C27.197 13.9268 30.007 16.7367 33.4732 16.7367C36.9395 16.7367 39.7494 13.9268 39.7494 10.4604C39.7494 6.99415 36.9395 4.18417 33.4732 4.18417ZM23.0128 10.4604C23.0128 4.6833 27.6961 0 33.4732 0C39.2502 0 43.9336 4.6833 43.9336 10.4604C43.9336 13.2205 42.8645 15.731 41.118 17.6003C44.9693 18.8547 47.9453 21.3378 49.8466 24.1278C50.4972 25.0826 50.2506 26.3841 49.2958 27.0347C48.3411 27.6854 47.0394 27.4387 46.3888 26.4839C44.3476 23.4884 40.6235 20.9208 35.5653 20.9208C27.5442 20.9208 23.0128 27.3523 23.0128 31.3812C23.0128 32.5367 22.0762 33.4733 20.9207 33.4733C19.7654 33.4733 18.8287 32.5367 18.8287 31.3812C18.8287 29.9335 19.1602 28.3896 19.7927 26.8676C19.6316 26.7642 19.482 26.637 19.3494 26.4862C17.6321 24.5322 14.9671 23.0129 11.5064 23.0129C8.0458 23.0129 5.38079 24.5322 3.66351 26.4862C2.90077 27.354 1.57887 27.4391 0.711001 26.6764C-0.156866 25.9136 -0.242072 24.5918 0.520688 23.7238C1.69256 22.3905 3.17543 21.2062 4.93154 20.3365C3.17972 18.6269 2.09209 16.2398 2.09209 13.5985C2.09209 8.39913 6.30704 4.18417 11.5064 4.18417C16.7058 4.18417 20.9207 8.39913 20.9207 13.5985C20.9207 16.2398 19.8331 18.6269 18.0813 20.3365C19.5926 21.0851 20.9016 22.0665 21.9841 23.1755C23.3308 21.4771 25.081 19.9547 27.1806 18.8172C24.6492 16.908 23.0128 13.8753 23.0128 10.4604ZM6.27624 13.5985C6.27624 10.71 8.61788 8.36833 11.5064 8.36833C14.395 8.36833 16.7366 10.71 16.7366 13.5985C16.7366 16.4871 14.395 18.8288 11.5064 18.8288C8.61788 18.8288 6.27624 16.4871 6.27624 13.5985Z" fill="#8699BF"/>
</svg>
