<svg width="36" height="24" viewBox="0 0 36 24" fill="none" xmlns="http://www.w3.org/2000/svg">
<path fill-rule="evenodd" clip-rule="evenodd" d="M23.9999 3C21.5147 3 19.4999 5.01473 19.4999 7.5C19.4999 9.98535 21.5147 12 23.9999 12C26.4852 12 28.4999 9.98535 28.4999 7.5C28.4999 5.01473 26.4852 3 23.9999 3ZM16.4999 7.5C16.4999 3.35787 19.8578 0 23.9999 0C28.142 0 31.4999 3.35787 31.4999 7.5C31.4999 9.47895 30.7334 11.2789 29.4812 12.6192C32.2425 13.5186 34.3763 15.299 35.7394 17.2994C36.2059 17.9839 36.0291 18.9171 35.3445 19.3836C34.66 19.8501 33.7268 19.6733 33.2603 18.9886C31.7967 16.841 29.1266 15 25.4999 15C19.7489 15 16.4999 19.6113 16.4999 22.5C16.4999 23.3284 15.8284 24 14.9999 24C14.1715 24 13.5 23.3284 13.5 22.5C13.5 21.462 13.7377 20.355 14.1912 19.2638C14.0756 19.1897 13.9684 19.0984 13.8733 18.9903C12.642 17.5893 10.7312 16.5 8.24998 16.5C5.76875 16.5 3.85797 17.5893 2.6267 18.9903C2.07982 19.6125 1.13203 19.6736 0.50978 19.1267C-0.112471 18.5798 -0.173563 17.632 0.373327 17.0097C1.21355 16.0537 2.27675 15.2046 3.53586 14.581C2.27982 13.3553 1.50001 11.6437 1.50001 9.75C1.50001 6.02208 4.52208 3 8.24998 3C11.9779 3 14.9999 6.02208 14.9999 9.75C14.9999 11.6437 14.2201 13.3553 12.9641 14.581C14.0477 15.1178 14.9862 15.8214 15.7624 16.6166C16.7279 15.3988 17.9828 14.3073 19.4882 13.4917C17.6732 12.1228 16.4999 9.94845 16.4999 7.5ZM4.5 9.75C4.5 7.67893 6.17892 6 8.24998 6C10.321 6 12 7.67893 12 9.75C12 11.821 10.321 13.5 8.24998 13.5C6.17892 13.5 4.5 11.821 4.5 9.75Z" fill="#8699BF"/>
</svg>
