<svg width="251" height="250" viewBox="0 0 251 250" fill="none" xmlns="http://www.w3.org/2000/svg">
<path d="M7.21094 55V46.9141H14.0078V25.3047H9.8125L8.875 33.2031H1.14062V17.6875H39.0625V33.2031H31.3281L30.3906 25.3047H26.1953V46.9141H32.9922V55H7.21094ZM52.9375 55.4453C47.1562 55.4453 44.2656 52.1953 44.2656 45.6953V37.2109H40.9844V30.8125L55.5156 29.4297V45.7188C55.5156 46.6719 55.7266 47.3594 56.1484 47.7812C56.5703 48.2031 57.1094 48.4141 57.7656 48.4141C58.9375 48.4141 59.8438 47.8125 60.4844 46.6094V37.2109H58.375V30.8125L71.7344 29.4297V47.9688H75.0156V55H60.7188V52.2578C59.7812 53.2578 58.6641 54.0391 57.3672 54.6016C56.0859 55.1641 54.6094 55.4453 52.9375 55.4453ZM91.8906 55.4219C88.1875 55.4219 85.3281 54.5781 83.3125 52.8906C81.2969 51.1875 80.2891 48.7266 80.2891 45.5078V36.9062H76.4219V30.5078L80.2891 30.1328V24.5078L91.5391 22.0469V29.875H97.2109V36.9062H91.5391V45.2734C91.5391 46.2109 91.7656 46.9453 92.2188 47.4766C92.6875 47.9922 93.3906 48.25 94.3281 48.25C94.875 48.25 95.3359 48.2031 95.7109 48.1094C96.1016 48 96.4688 47.8906 96.8125 47.7812L97.4453 48.0625V54.7656C96.5547 54.9688 95.6562 55.125 94.75 55.2344C93.8594 55.3594 92.9062 55.4219 91.8906 55.4219ZM113.852 55.4219C110.914 55.4219 108.375 54.8984 106.234 53.8516C104.109 52.8047 102.469 51.3125 101.312 49.375C100.172 47.4375 99.6016 45.1328 99.6016 42.4609C99.6016 39.7734 100.172 37.4609 101.312 35.5234C102.469 33.5859 104.109 32.0938 106.234 31.0469C108.375 29.9844 110.914 29.4531 113.852 29.4531C116.789 29.4531 119.32 29.9844 121.445 31.0469C123.586 32.0938 125.227 33.5859 126.367 35.5234C127.523 37.4609 128.102 39.7734 128.102 42.4609C128.102 45.1328 127.523 47.4375 126.367 49.375C125.227 51.3125 123.586 52.8047 121.445 53.8516C119.32 54.8984 116.789 55.4219 113.852 55.4219ZM113.852 48.6016C115.961 48.6016 117.016 46.5469 117.016 42.4375C117.016 38.3281 115.961 36.2734 113.852 36.2734C111.742 36.2734 110.688 38.3281 110.688 42.4375C110.688 46.5469 111.742 48.6016 113.852 48.6016ZM131.102 55V47.9688H134.5V37.2109H131.102V30.8125L145.516 29.4297V34.2344C146.438 32.5312 147.711 31.2891 149.336 30.5078C150.961 29.7266 152.516 29.3359 154 29.3359V39.4141C152.594 38.9297 151.305 38.6875 150.133 38.6875C149.352 38.6875 148.531 38.8281 147.672 39.1094C146.812 39.375 146.172 39.7422 145.75 40.2109V47.9688H151.141V55H131.102Z" fill="#365295"/>
<path d="M176.75 55.6797C171.484 55.6797 167.398 54.3516 164.492 51.6953C161.602 49.0391 160.156 44.7891 160.156 38.9453V25.7734H156.406V17.6875H176.211V25.7734H172.344V38.9688C172.344 43.9062 174.391 46.375 178.484 46.375C180.438 46.375 181.891 45.7344 182.844 44.4531C183.812 43.1719 184.297 41.3438 184.297 38.9688V25.7734H180.43V17.6875H195.875V25.7734H192.125V39.8828C192.125 50.4141 187 55.6797 176.75 55.6797ZM197.516 64.3281V57.2969H200.914V37.2109H197.516V30.8125L211.93 29.4297V32.4766C212.898 31.5547 214.023 30.8203 215.305 30.2734C216.586 29.7109 217.891 29.4297 219.219 29.4297C221.5 29.4297 223.453 29.9688 225.078 31.0469C226.719 32.125 227.977 33.6406 228.852 35.5938C229.727 37.5469 230.164 39.8359 230.164 42.4609C230.164 45.0703 229.734 47.3516 228.875 49.3047C228.016 51.2422 226.805 52.7422 225.242 53.8047C223.695 54.8672 221.883 55.3984 219.805 55.3984C217.117 55.3984 214.57 54.4219 212.164 52.4688V57.2969H215.562V64.3281H197.516ZM215.586 48.3906C216.695 48.3906 217.555 47.8672 218.164 46.8203C218.773 45.7734 219.078 44.3125 219.078 42.4375C219.078 40.5625 218.773 39.0938 218.164 38.0312C217.555 36.9688 216.695 36.4375 215.586 36.4375C215.008 36.4375 214.398 36.5312 213.758 36.7188C213.117 36.8906 212.586 37.1328 212.164 37.4453V47.3125C212.586 47.6094 213.117 47.8672 213.758 48.0859C214.398 48.2891 215.008 48.3906 215.586 48.3906ZM236.656 42.2266L234.008 27.0625V17.6875H248.258V27.0625L245.609 42.1797L236.656 42.2266ZM241.133 55.6328C239.148 55.6328 237.555 55.0938 236.352 54.0156C235.148 52.9375 234.547 51.4844 234.547 49.6562C234.547 47.8438 235.148 46.4141 236.352 45.3672C237.555 44.3203 239.148 43.7969 241.133 43.7969C243.133 43.7969 244.727 44.3203 245.914 45.3672C247.117 46.4141 247.719 47.8438 247.719 49.6562C247.719 51.4844 247.117 52.9375 245.914 54.0156C244.711 55.0938 243.117 55.6328 241.133 55.6328Z" fill="#F99781"/>
<path d="M98.7541 231.346H32.5166V207.938H98.9664C104.133 207.938 108.32 212.128 108.32 217.297V221.774C108.32 227.06 104.038 231.346 98.7541 231.346Z" fill="#FCECDB"/>
<path d="M164.858 217.569V221.091C164.858 222.972 164.352 224.735 163.467 226.249C161.692 229.297 158.389 231.346 154.607 231.346H30.487C29.6658 231.346 29 230.68 29 229.86V229.333C29 228.512 29.6658 227.847 30.487 227.847H106.149C106.553 227.353 106.91 226.818 107.211 226.25C107.92 224.914 108.32 223.391 108.32 221.774V217.297C108.32 216.474 108.214 215.676 108.014 214.915C107.675 213.627 107.069 212.446 106.26 211.439H30.487C29.6658 211.439 29 210.773 29 209.952V209.426C29 208.604 29.6658 207.939 30.487 207.939H155.232C159.628 207.939 163.336 210.888 164.486 214.916C164.728 215.758 164.858 216.648 164.858 217.569Z" fill="#699DEE"/>
<path d="M164.486 214.914H108.014C107.675 213.626 107.069 212.446 106.26 211.439H30.487C29.6658 211.439 29 210.773 29 209.952V209.426C29 208.603 29.6658 207.939 30.487 207.939H155.232C159.628 207.938 163.336 210.886 164.486 214.914Z" fill="#548EE2"/>
<path d="M32.5166 219.641L41.7071 220.036L32.5166 220.272V219.641Z" fill="#F4D2B8"/>
<path d="M32.5166 223.314L54.3813 223.708L32.5166 223.945V223.314Z" fill="#F4D2B8"/>
<path d="M48.3963 249.826H119V230.826H47.8234C42.9501 230.826 39 234.945 39 240.027C38.9993 245.439 43.2067 249.826 48.3963 249.826Z" fill="#2B478B"/>
<path d="M115.12 249.826H195V230.826H114.918C109.993 230.826 106 235.014 106 240.181V240.258C105.999 245.542 110.083 249.826 115.12 249.826Z" fill="#FCECDB"/>
<path d="M100.357 233.826H197.643C198.392 233.826 199 233.154 199 232.326C199 231.498 198.392 230.826 197.643 230.826H100.357C99.6079 230.826 99 231.498 99 232.326C99 233.154 99.6072 233.826 100.357 233.826Z" fill="#2B478B"/>
<path d="M195 235.826L169 236.448L195 236.826V235.826Z" fill="#F4D2B8"/>
<path d="M169.503 236.455C169.503 236.455 170.609 237.238 170.974 238.524C171.039 238.749 171.081 238.989 171.089 239.243C171.15 240.952 171.089 244.818 171.089 244.818L174.352 242.885L177.606 244.818V239.577C177.606 238.586 177.327 237.622 176.809 236.991C176.558 236.685 176.252 236.455 175.908 236.455H169.503Z" fill="#F99746"/>
<path d="M169.503 236.455C169.503 236.455 170.609 237.237 170.974 238.523L177.513 238.599C177.513 238.599 177.257 236.758 175.908 236.454L169.503 236.455Z" fill="#ED7D2B"/>
<path d="M105.543 174.294L112.72 175.448L126.311 90.7917L119.133 89.6379L105.543 174.294Z" fill="#B5453C"/>
<path d="M125.062 75.2825L126.26 90.7639L119.081 89.6109L125.062 75.2825Z" fill="#EFCBAB"/>
<path d="M56.9743 182.369L64.1224 181.04L48.475 96.7355L41.3269 98.0638L56.9743 182.369Z" fill="#B5453C"/>
<path d="M42.1263 82.5815L48.4565 96.7586L41.3087 98.0874L42.1263 82.5815Z" fill="#EFCBAB"/>
<path d="M66.0253 157.634L73.1733 156.305L57.5173 72L50.3693 73.3291L66.0253 157.634Z" fill="#B5453C"/>
<path d="M42.0779 207.937H99.3444L99.3444 125.353H42.0779L42.0779 207.937Z" fill="#E96B4E"/>
<path d="M70.7115 207.937H127.978L127.978 125.353H70.7115V207.937Z" fill="#F99781"/>
<path d="M210.701 174.005H204.739C204.739 174.004 204.739 174.001 204.739 174H194.87C194.87 174.001 194.87 174.004 194.87 174.005H137.877C137.687 175.514 137.578 177.046 137.578 178.603V185.647C132.723 184.627 126.022 183.795 122.578 185.926C116.8 189.503 118.563 199.978 124.002 206.449C129.441 212.92 146.768 217.194 146.768 217.194L146.764 217.186C150.239 221.139 154.552 224.325 159.404 226.504H159.332V231H189.299V226.504H189.172C201.995 220.751 211 207.851 211 192.925V178.603C211 177.046 210.891 175.513 210.701 174.005ZM126.424 199.168C124.096 193.14 125.67 190.913 128.272 190.439C131.183 189.911 135.155 191.929 137.669 195.378C137.953 199.65 138.969 203.728 140.6 207.486C136.525 206.491 128.262 203.928 126.424 199.168Z" fill="#2C3A64"/>
</svg>
