<svg width="14" height="14" viewBox="0 0 14 14" fill="none" xmlns="http://www.w3.org/2000/svg">
<path fill-rule="evenodd" clip-rule="evenodd" d="M9.49782 4.13765C9.54626 4.23592 9.61685 4.32159 9.70403 4.3879C9.79234 4.45472 9.89454 4.50084 10.0031 4.52283L13.4231 5.21498C13.5573 5.24113 13.6813 5.30525 13.7803 5.39975C13.8792 5.49425 13.9491 5.61516 13.9815 5.74816C14.0125 5.88055 14.0044 6.01912 13.9581 6.14696C13.9118 6.27481 13.8293 6.38639 13.7207 6.4681L11.0597 8.4883C10.9559 8.56609 10.8756 8.67113 10.8279 8.79178C10.7804 8.91171 10.7674 9.04257 10.7905 9.16949L11.5085 13.1688C11.5321 13.3022 11.5166 13.4395 11.4638 13.5642C11.411 13.689 11.3232 13.7957 11.2111 13.8715C11.0976 13.9488 10.9649 13.9929 10.8278 13.9989C10.6907 14.005 10.5546 13.9726 10.4348 13.9056L7.3605 12.1765C7.25035 12.1148 7.12623 12.0824 7 12.0824C6.87377 12.0824 6.74966 12.1148 6.63951 12.1765L3.56496 13.9056C3.44529 13.9728 3.30921 14.0053 3.17208 13.9993C3.03495 13.9933 2.90224 13.949 2.78892 13.8715C2.67677 13.7957 2.58898 13.689 2.53619 13.5642C2.48341 13.4395 2.46789 13.3022 2.49152 13.1688L3.20948 9.17019C3.23256 9.04327 3.21962 8.91242 3.17215 8.79248C3.12435 8.67183 3.04411 8.56679 2.9403 8.489L0.279315 6.4688C0.170699 6.38709 0.0881961 6.2755 0.0418875 6.14766C-0.00442111 6.01982 -0.0125271 5.88125 0.0185391 5.74886C0.0509529 5.6159 0.120754 5.49503 0.219677 5.40053C0.3186 5.30604 0.442504 5.24189 0.576722 5.21568L3.99625 4.52353C4.10475 4.50171 4.20691 4.45558 4.29505 4.3886C4.38222 4.32223 4.45288 4.23658 4.50148 4.13835L6.3484 0.400245C6.40949 0.279825 6.50272 0.178686 6.61773 0.10804C6.73274 0.0373944 6.86505 0 7 0C7.13495 0 7.26726 0.0373944 7.38227 0.10804C7.49728 0.178686 7.59051 0.279825 7.6516 0.400245L9.49782 4.13765Z" fill="#FFC300"/>
</svg>
