<svg width="31" height="31" viewBox="0 0 31 31" fill="none" xmlns="http://www.w3.org/2000/svg">
<path fill-rule="evenodd" clip-rule="evenodd" d="M21.0309 9.16193C21.1381 9.37954 21.2945 9.56923 21.4875 9.71605C21.683 9.86403 21.9093 9.96614 22.1496 10.0148L29.7225 11.5475C30.0198 11.6054 30.2943 11.7473 30.5134 11.9566C30.7326 12.1658 30.8872 12.4336 30.9589 12.7281C31.0277 13.0212 31.0098 13.328 30.9072 13.6111C30.8047 13.8942 30.622 14.1413 30.3815 14.3222L24.4893 18.7955C24.2595 18.9678 24.0818 19.2004 23.976 19.4675C23.8708 19.7331 23.8422 20.0228 23.8933 20.3039L25.4831 29.1595C25.5354 29.4548 25.501 29.759 25.3841 30.0351C25.2673 30.3113 25.0729 30.5476 24.8246 30.7154C24.5734 30.8866 24.2795 30.9843 23.9758 30.9977C23.6722 31.011 23.3709 30.9394 23.1057 30.7909L16.2983 26.9621C16.0543 26.8256 15.7795 26.7538 15.5 26.7538C15.2205 26.7538 14.9457 26.8256 14.7018 26.9621L7.89383 30.7909C7.62886 30.9399 7.32753 31.0118 7.02389 30.9984C6.72024 30.9851 6.42639 30.8871 6.17547 30.7154C5.92713 30.5476 5.73273 30.3113 5.61585 30.0351C5.49897 29.759 5.46461 29.4548 5.51693 29.1595L7.1067 20.3054C7.15781 20.0244 7.12916 19.7346 7.02404 19.4691C6.91821 19.2019 6.74053 18.9693 6.51067 18.7971L0.618483 14.3238C0.377977 14.1428 0.195291 13.8958 0.0927508 13.6127C-0.00978961 13.3296 -0.0277386 13.0228 0.0410509 12.7296C0.112824 12.4352 0.267383 12.1676 0.486427 11.9583C0.705471 11.7491 0.97983 11.607 1.27703 11.549L8.84883 10.0164C9.08909 9.96808 9.3153 9.86593 9.51046 9.71761C9.7035 9.57066 9.85995 9.381 9.96757 9.16348L14.0572 0.886257C14.1924 0.619614 14.3989 0.395662 14.6535 0.239232C14.9082 0.0828018 15.2012 0 15.5 0C15.7988 0 16.0918 0.0828018 16.3465 0.239232C16.6011 0.395662 16.8076 0.619614 16.9428 0.886257L21.0309 9.16193Z" fill="#FFC300"/>
</svg>
