<svg width="153" height="39" viewBox="0 0 153 39" fill="none" xmlns="http://www.w3.org/2000/svg">
<path d="M6.21094 38V29.9141H13.0078V8.30469H8.8125L7.875 16.2031H0.140625V0.6875H38.0625V16.2031H30.3281L29.3906 8.30469H25.1953V29.9141H31.9922V38H6.21094ZM51.9375 38.4453C46.1562 38.4453 43.2656 35.1953 43.2656 28.6953V20.2109H39.9844V13.8125L54.5156 12.4297V28.7188C54.5156 29.6719 54.7266 30.3594 55.1484 30.7812C55.5703 31.2031 56.1094 31.4141 56.7656 31.4141C57.9375 31.4141 58.8438 30.8125 59.4844 29.6094V20.2109H57.375V13.8125L70.7344 12.4297V30.9688H74.0156V38H59.7188V35.2578C58.7812 36.2578 57.6641 37.0391 56.3672 37.6016C55.0859 38.1641 53.6094 38.4453 51.9375 38.4453ZM90.8906 38.4219C87.1875 38.4219 84.3281 37.5781 82.3125 35.8906C80.2969 34.1875 79.2891 31.7266 79.2891 28.5078V19.9062H75.4219V13.5078L79.2891 13.1328V7.50781L90.5391 5.04688V12.875H96.2109V19.9062H90.5391V28.2734C90.5391 29.2109 90.7656 29.9453 91.2188 30.4766C91.6875 30.9922 92.3906 31.25 93.3281 31.25C93.875 31.25 94.3359 31.2031 94.7109 31.1094C95.1016 31 95.4688 30.8906 95.8125 30.7812L96.4453 31.0625V37.7656C95.5547 37.9688 94.6562 38.125 93.75 38.2344C92.8594 38.3594 91.9062 38.4219 90.8906 38.4219ZM112.852 38.4219C109.914 38.4219 107.375 37.8984 105.234 36.8516C103.109 35.8047 101.469 34.3125 100.312 32.375C99.1719 30.4375 98.6016 28.1328 98.6016 25.4609C98.6016 22.7734 99.1719 20.4609 100.312 18.5234C101.469 16.5859 103.109 15.0938 105.234 14.0469C107.375 12.9844 109.914 12.4531 112.852 12.4531C115.789 12.4531 118.32 12.9844 120.445 14.0469C122.586 15.0938 124.227 16.5859 125.367 18.5234C126.523 20.4609 127.102 22.7734 127.102 25.4609C127.102 28.1328 126.523 30.4375 125.367 32.375C124.227 34.3125 122.586 35.8047 120.445 36.8516C118.32 37.8984 115.789 38.4219 112.852 38.4219ZM112.852 31.6016C114.961 31.6016 116.016 29.5469 116.016 25.4375C116.016 21.3281 114.961 19.2734 112.852 19.2734C110.742 19.2734 109.688 21.3281 109.688 25.4375C109.688 29.5469 110.742 31.6016 112.852 31.6016ZM130.102 38V30.9688H133.5V20.2109H130.102V13.8125L144.516 12.4297V17.2344C145.438 15.5312 146.711 14.2891 148.336 13.5078C149.961 12.7266 151.516 12.3359 153 12.3359V22.4141C151.594 21.9297 150.305 21.6875 149.133 21.6875C148.352 21.6875 147.531 21.8281 146.672 22.1094C145.812 22.375 145.172 22.7422 144.75 23.2109V30.9688H150.141V38H130.102Z" fill="white"/>
</svg>
