<svg width="251" height="77" viewBox="0 0 251 77" fill="none" xmlns="http://www.w3.org/2000/svg">
<path d="M7.21094 55V46.9141H14.0078V25.3047H9.8125L8.875 33.2031H1.14062V17.6875H39.0625V33.2031H31.3281L30.3906 25.3047H26.1953V46.9141H32.9922V55H7.21094ZM52.9375 55.4453C47.1562 55.4453 44.2656 52.1953 44.2656 45.6953V37.2109H40.9844V30.8125L55.5156 29.4297V45.7188C55.5156 46.6719 55.7266 47.3594 56.1484 47.7812C56.5703 48.2031 57.1094 48.4141 57.7656 48.4141C58.9375 48.4141 59.8438 47.8125 60.4844 46.6094V37.2109H58.375V30.8125L71.7344 29.4297V47.9688H75.0156V55H60.7188V52.2578C59.7812 53.2578 58.6641 54.0391 57.3672 54.6016C56.0859 55.1641 54.6094 55.4453 52.9375 55.4453ZM91.8906 55.4219C88.1875 55.4219 85.3281 54.5781 83.3125 52.8906C81.2969 51.1875 80.2891 48.7266 80.2891 45.5078V36.9062H76.4219V30.5078L80.2891 30.1328V24.5078L91.5391 22.0469V29.875H97.2109V36.9062H91.5391V45.2734C91.5391 46.2109 91.7656 46.9453 92.2188 47.4766C92.6875 47.9922 93.3906 48.25 94.3281 48.25C94.875 48.25 95.3359 48.2031 95.7109 48.1094C96.1016 48 96.4688 47.8906 96.8125 47.7812L97.4453 48.0625V54.7656C96.5547 54.9688 95.6562 55.125 94.75 55.2344C93.8594 55.3594 92.9062 55.4219 91.8906 55.4219ZM113.852 55.4219C110.914 55.4219 108.375 54.8984 106.234 53.8516C104.109 52.8047 102.469 51.3125 101.312 49.375C100.172 47.4375 99.6016 45.1328 99.6016 42.4609C99.6016 39.7734 100.172 37.4609 101.312 35.5234C102.469 33.5859 104.109 32.0938 106.234 31.0469C108.375 29.9844 110.914 29.4531 113.852 29.4531C116.789 29.4531 119.32 29.9844 121.445 31.0469C123.586 32.0938 125.227 33.5859 126.367 35.5234C127.523 37.4609 128.102 39.7734 128.102 42.4609C128.102 45.1328 127.523 47.4375 126.367 49.375C125.227 51.3125 123.586 52.8047 121.445 53.8516C119.32 54.8984 116.789 55.4219 113.852 55.4219ZM113.852 48.6016C115.961 48.6016 117.016 46.5469 117.016 42.4375C117.016 38.3281 115.961 36.2734 113.852 36.2734C111.742 36.2734 110.688 38.3281 110.688 42.4375C110.688 46.5469 111.742 48.6016 113.852 48.6016ZM131.102 55V47.9688H134.5V37.2109H131.102V30.8125L145.516 29.4297V34.2344C146.438 32.5312 147.711 31.2891 149.336 30.5078C150.961 29.7266 152.516 29.3359 154 29.3359V39.4141C152.594 38.9297 151.305 38.6875 150.133 38.6875C149.352 38.6875 148.531 38.8281 147.672 39.1094C146.812 39.375 146.172 39.7422 145.75 40.2109V47.9688H151.141V55H131.102Z" fill="white"/>
<path d="M176.75 55.6797C171.484 55.6797 167.398 54.3516 164.492 51.6953C161.602 49.0391 160.156 44.7891 160.156 38.9453V25.7734H156.406V17.6875H176.211V25.7734H172.344V38.9688C172.344 43.9062 174.391 46.375 178.484 46.375C180.438 46.375 181.891 45.7344 182.844 44.4531C183.812 43.1719 184.297 41.3438 184.297 38.9688V25.7734H180.43V17.6875H195.875V25.7734H192.125V39.8828C192.125 50.4141 187 55.6797 176.75 55.6797ZM197.516 64.3281V57.2969H200.914V37.2109H197.516V30.8125L211.93 29.4297V32.4766C212.898 31.5547 214.023 30.8203 215.305 30.2734C216.586 29.7109 217.891 29.4297 219.219 29.4297C221.5 29.4297 223.453 29.9688 225.078 31.0469C226.719 32.125 227.977 33.6406 228.852 35.5938C229.727 37.5469 230.164 39.8359 230.164 42.4609C230.164 45.0703 229.734 47.3516 228.875 49.3047C228.016 51.2422 226.805 52.7422 225.242 53.8047C223.695 54.8672 221.883 55.3984 219.805 55.3984C217.117 55.3984 214.57 54.4219 212.164 52.4688V57.2969H215.562V64.3281H197.516ZM215.586 48.3906C216.695 48.3906 217.555 47.8672 218.164 46.8203C218.773 45.7734 219.078 44.3125 219.078 42.4375C219.078 40.5625 218.773 39.0938 218.164 38.0312C217.555 36.9688 216.695 36.4375 215.586 36.4375C215.008 36.4375 214.398 36.5312 213.758 36.7188C213.117 36.8906 212.586 37.1328 212.164 37.4453V47.3125C212.586 47.6094 213.117 47.8672 213.758 48.0859C214.398 48.2891 215.008 48.3906 215.586 48.3906ZM236.656 42.2266L234.008 27.0625V17.6875H248.258V27.0625L245.609 42.1797L236.656 42.2266ZM241.133 55.6328C239.148 55.6328 237.555 55.0938 236.352 54.0156C235.148 52.9375 234.547 51.4844 234.547 49.6562C234.547 47.8438 235.148 46.4141 236.352 45.3672C237.555 44.3203 239.148 43.7969 241.133 43.7969C243.133 43.7969 244.727 44.3203 245.914 45.3672C247.117 46.4141 247.719 47.8438 247.719 49.6562C247.719 51.4844 247.117 52.9375 245.914 54.0156C244.711 55.0938 243.117 55.6328 241.133 55.6328Z" fill="#F99781"/>
</svg>
