<svg width="93" height="48" viewBox="0 0 93 48" fill="none" xmlns="http://www.w3.org/2000/svg">
<path d="M20.75 38.6797C15.4844 38.6797 11.3984 37.3516 8.49219 34.6953C5.60156 32.0391 4.15625 27.7891 4.15625 21.9453V8.77344H0.40625V0.6875H20.2109V8.77344H16.3438V21.9688C16.3438 26.9062 18.3906 29.375 22.4844 29.375C24.4375 29.375 25.8906 28.7344 26.8438 27.4531C27.8125 26.1719 28.2969 24.3438 28.2969 21.9688V8.77344H24.4297V0.6875H39.875V8.77344H36.125V22.8828C36.125 33.4141 31 38.6797 20.75 38.6797ZM41.5156 47.3281V40.2969H44.9141V20.2109H41.5156V13.8125L55.9297 12.4297V15.4766C56.8984 14.5547 58.0234 13.8203 59.3047 13.2734C60.5859 12.7109 61.8906 12.4297 63.2188 12.4297C65.5 12.4297 67.4531 12.9688 69.0781 14.0469C70.7188 15.125 71.9766 16.6406 72.8516 18.5938C73.7266 20.5469 74.1641 22.8359 74.1641 25.4609C74.1641 28.0703 73.7344 30.3516 72.875 32.3047C72.0156 34.2422 70.8047 35.7422 69.2422 36.8047C67.6953 37.8672 65.8828 38.3984 63.8047 38.3984C61.1172 38.3984 58.5703 37.4219 56.1641 35.4688V40.2969H59.5625V47.3281H41.5156ZM59.5859 31.3906C60.6953 31.3906 61.5547 30.8672 62.1641 29.8203C62.7734 28.7734 63.0781 27.3125 63.0781 25.4375C63.0781 23.5625 62.7734 22.0938 62.1641 21.0312C61.5547 19.9688 60.6953 19.4375 59.5859 19.4375C59.0078 19.4375 58.3984 19.5312 57.7578 19.7188C57.1172 19.8906 56.5859 20.1328 56.1641 20.4453V30.3125C56.5859 30.6094 57.1172 30.8672 57.7578 31.0859C58.3984 31.2891 59.0078 31.3906 59.5859 31.3906ZM80.6562 25.2266L78.0078 10.0625V0.6875H92.2578V10.0625L89.6094 25.1797L80.6562 25.2266ZM85.1328 38.6328C83.1484 38.6328 81.5547 38.0938 80.3516 37.0156C79.1484 35.9375 78.5469 34.4844 78.5469 32.6562C78.5469 30.8438 79.1484 29.4141 80.3516 28.3672C81.5547 27.3203 83.1484 26.7969 85.1328 26.7969C87.1328 26.7969 88.7266 27.3203 89.9141 28.3672C91.1172 29.4141 91.7188 30.8438 91.7188 32.6562C91.7188 34.4844 91.1172 35.9375 89.9141 37.0156C88.7109 38.0938 87.1172 38.6328 85.1328 38.6328Z" fill="#F99781"/>
</svg>
