<svg width="80" height="80" viewBox="0 0 80 80" fill="none" xmlns="http://www.w3.org/2000/svg">
<g clip-path="url(#clip0_21_234)">
<path fill-rule="evenodd" clip-rule="evenodd" d="M39.9884 0C17.9371 0 0 17.9421 0 39.9996C0 48.7474 2.82107 56.8601 7.61668 63.4449L2.63265 78.3063L18.0074 73.3926C24.331 77.5783 31.8774 80 40.0116 80C62.0629 80 80 62.0572 80 40.0004C80 17.9428 62.0629 0.000661214 40.0116 0.000661214L39.9884 0ZM28.8214 20.318C28.0458 18.4605 27.458 18.3901 26.283 18.3423C25.8829 18.3191 25.437 18.2959 24.9427 18.2959C23.4141 18.2959 21.8158 18.7425 20.8517 19.7301C19.6767 20.9293 16.7614 23.7273 16.7614 29.4653C16.7614 35.2034 20.946 40.7529 21.5099 41.5294C22.0977 42.3045 29.668 54.2505 41.4221 59.1192C50.6139 62.9286 53.3415 62.5755 55.4334 62.1289C58.4894 61.4705 62.3217 59.2121 63.2857 56.4851C64.2498 53.7568 64.2497 51.4286 63.9671 50.9349C63.6851 50.4411 62.9088 50.1597 61.7338 49.571C60.5588 48.983 54.8456 46.1611 53.7641 45.7848C52.7059 45.3853 51.6954 45.5266 50.8966 46.6555C49.768 48.2311 48.6634 49.8305 47.7697 50.7942C47.0644 51.5468 45.9119 51.641 44.9485 51.2408C43.6554 50.7006 40.0355 49.4296 35.5683 45.4556C32.1123 42.3756 29.7616 38.5429 29.0802 37.3908C28.3981 36.2155 29.0098 35.5325 29.5499 34.8981C30.1377 34.1687 30.7017 33.6517 31.2896 32.9695C31.8774 32.2879 32.2065 31.9348 32.5827 31.1351C32.9828 30.3593 32.7001 29.5596 32.4181 28.9716C32.1361 28.3836 29.7854 22.6455 28.8214 20.318Z" fill="#F99781"/>
</g>
<defs>
<clipPath id="clip0_21_234">
<rect width="80" height="80" fill="white"/>
</clipPath>
</defs>
</svg>
